# xmcd
#
# Track frame offsets:
#	183
#	17208
#	40175
#	63278
#	83030
#	105208
#	133540
#	166570
#	182635
#	204508
#	225328
#	241100
#
# Disc length: 3547 seconds
#
# Revision: 1
# Processed by: cddbd v1.4PL0 Copyright (c) Steve Scherf et al.
# Submitted via: audiograbber 1.81.03
#
DISCID=810dd90c
DTITLE=Buster Benton - Spider in my Stew
DYEAR=1992
DGENRE=Blues
TTITLE0=From Missouri
TTITLE1=Dangerous Woman
TTITLE2=My Lady
TTITLE3=In the Ghetto
TTITLE4=Can't Wait to See My Baby Face
TTITLE5=Blues and Trouble
TTITLE6=Loan Me for a Dime
TTITLE7=It's Good in My Neighbourhood
TTITLE8=Thjat's Your Thing
TTITLE9=Honey Bee
TTITLE10=I Must Have a Hole in My Head
TTITLE11=Cold Man
EXTD=
EXTT0=
EXTT1=
EXTT2=
EXTT3=
EXTT4=
EXTT5=
EXTT6=
EXTT7=
EXTT8=
EXTT9=
EXTT10=
EXTT11=
PLAYORDER=
